<svg xmlns="http://www.w3.org/2000/svg" xmlns:xlink="http://www.w3.org/1999/xlink" viewBox="0 0 82.452 35">
  <defs>
    <style>
      .cls-1 {
        fill: none;
      }

      .cls-2 {
        fill: rgba(255,255,255,0.6);
      }

      .cls-3 {
        clip-path: url(#clip-path);
      }

      .cls-4 {
        fill: rgba(0,0,0,0.3);
      }

      .cls-5 {
        fill: #fff;
      }
    </style>
    <clipPath id="clip-path">
      <path id="Path_24" data-name="Path 24" class="cls-1" d="M119.79,84.34l-1.546-.892a.5.5,0,0,1,0-.863l8.28-4.77a.5.5,0,0,1,.739.421V87.8a.5.5,0,0,1-.746.431l-1.744-1.009a.5.5,0,0,1-.249-.431V82.752a.5.5,0,0,0-.739-.437l-3.5,2.02A.506.506,0,0,1,119.79,84.34Zm16.4,0,1.546-.892a.5.5,0,0,0,0-.863l-8.28-4.77a.5.5,0,0,0-.746.431v9.561a.5.5,0,0,0,.746.431l1.744-1.009a.5.5,0,0,0,.249-.431V82.752a.495.495,0,0,1,.744-.437l3.5,2.02A.506.506,0,0,0,136.186,84.34Z" transform="translate(-117.997 -77.748)"/>
    </clipPath>
  </defs>
  <g id="admost_logo" transform="translate(0 0)">
    <g id="Layer_1" data-name="Layer 1">
      <rect id="Rectangle_4" data-name="Rectangle 4" class="cls-1" width="82.452" height="35"/>
      <path id="Path_20" data-name="Path 20" class="cls-2" d="M120.287,84.34l3.5-2.025a.5.5,0,0,1,.746.431v4.042a.5.5,0,0,0,.249.431l1.744,1.009a.5.5,0,0,0,.746-.431V78.236a.5.5,0,0,0-.746-.421l-8.28,4.765a.5.5,0,0,0,0,.863l1.546.892A.506.506,0,0,0,120.287,84.34Z" transform="translate(-86.762 -57.167)"/>
      <path id="Path_21" data-name="Path 21" class="cls-2" d="M165.433,84.34l-3.5-2.025a.5.5,0,0,0-.744.431v4.042a.5.5,0,0,1-.249.431L159.2,88.228a.5.5,0,0,1-.746-.431V78.236a.5.5,0,0,1,.746-.421l8.28,4.765a.5.5,0,0,1,0,.863l-1.546.892A.506.506,0,0,1,165.433,84.34Z" transform="translate(-116.507 -57.167)"/>
      <g id="Group_12" data-name="Group 12" class="cls-3" transform="translate(31.235 20.581)">
        <path id="Path_22" data-name="Path 22" class="cls-4" d="M122.548,50.757,111.8,44.589a.5.5,0,0,0-.744.431V58.415a.5.5,0,0,0,.746.431l3.669-2.118a.5.5,0,0,0,.249-.431V52.544a.5.5,0,0,1,.746-.431l6.088,3.5Z" transform="translate(-112.896 -53.319)"/>
        <path id="Path_23" data-name="Path 23" class="cls-4" d="M167.75,44.589,157,50.759v4.857l6.088-3.5a.5.5,0,0,1,.746.431V56.3a.492.492,0,0,0,.265.431l3.672,2.118a.5.5,0,0,0,.723-.431V45.02a.5.5,0,0,0-.744-.431Z" transform="translate(-146.675 -53.319)"/>
      </g>
      <path id="Path_25" data-name="Path 25" class="cls-2" d="M165.433,18.583l-3.5,2.02a.5.5,0,0,1-.744-.431V16.135a.5.5,0,0,0-.249-.431L159.2,14.695a.5.5,0,0,0-.746.431v9.561a.5.5,0,0,0,.746.431l8.28-4.781a.5.5,0,0,0,0-.863l-1.546-.892A.506.506,0,0,0,165.433,18.583Z" transform="translate(-116.507 -10.756)"/>
      <path id="Path_26" data-name="Path 26" class="cls-2" d="M120.287,18.6l3.5,2.02a.5.5,0,0,0,.746-.431V16.147a.5.5,0,0,1,.249-.431l1.744-1.009a.5.5,0,0,1,.739.431V24.7a.5.5,0,0,1-.746.431l-8.272-4.781a.5.5,0,0,1,0-.863l1.546-.892a.506.506,0,0,1,.5,0Z" transform="translate(-86.762 -10.768)"/>
      <path id="Path_27" data-name="Path 27" class="cls-5" d="M121.921,44.871,111.8,39.064a.5.5,0,0,0-.744.431V52.889a.5.5,0,0,0,.746.431l3.669-2.118a.5.5,0,0,0,.249-.431V47.016a.5.5,0,0,1,.746-.431l4.953,2.859a.5.5,0,0,0,.739-.431V45.306A.5.5,0,0,0,121.921,44.871Z" transform="translate(-81.661 -28.674)"/>
      <path id="Path_28" data-name="Path 28" class="cls-5" d="M158.45,45.311v3.706a.5.5,0,0,0,.746.431l4.958-2.856a.5.5,0,0,1,.746.431V50.78a.5.5,0,0,0,.265.431l3.672,2.118a.5.5,0,0,0,.744-.431V39.5a.5.5,0,0,0-.744-.431L158.72,44.893A.5.5,0,0,0,158.45,45.311Z" transform="translate(-116.507 -28.679)"/>
      <path id="Path_29" data-name="Path 29" class="cls-5" d="M213.36,62.27a4.965,4.965,0,0,1-6.835,0c-.889-.966-1.165-1.975-1.165-4.069s.265-3.1,1.165-4.071a4.972,4.972,0,0,1,6.835,0c.889.969,1.167,2,1.167,4.071S214.249,61.3,213.36,62.27Zm-2.536-6.282a1.424,1.424,0,0,0-1.739,0c-.416.416-.474,1.165-.474,2.213s.058,1.8.474,2.213a1.424,1.424,0,0,0,1.739,0A3.2,3.2,0,0,0,211.3,58.2,3.254,3.254,0,0,0,210.824,55.989Z" transform="translate(-150.999 -38.801)"/>
      <path id="Path_30" data-name="Path 30" class="cls-5" d="M244.284,63.634a5.808,5.808,0,0,1-4.624-1.541L241.754,60a3.463,3.463,0,0,0,2.589.889c.474,0,1.382-.138,1.382-.691,0-.3-.138-.614-.77-.672l-1.639-.159c-1.837-.177-3.081-1.006-3.081-3.081,0-2.351,2.118-3.515,4.235-3.515a5.567,5.567,0,0,1,4.188,1.3l-2,2a3.191,3.191,0,0,0-2.253-.633c-.794,0-1.046.376-1.046.611,0,.119-.04.514.691.593l1.641.159c2.232.217,3.2,1.541,3.2,3.24C248.885,62.548,246.752,63.634,244.284,63.634Z" transform="translate(-176.22 -38.801)"/>
      <path id="Path_31" data-name="Path 31" class="cls-5" d="M279.2,56.544a3.06,3.06,0,0,1-3.3-3.139V48.82h-.969V46.332h.969V43.29h3.24v3.042h1.678V48.82h-1.678v4.347a.585.585,0,0,0,.651.654h1.027v2.724Z" transform="translate(-202.153 -31.831)"/>
      <path id="Path_32" data-name="Path 32" class="cls-5" d="M40.412,63.544v-.868a2.941,2.941,0,0,1-2.382.969A3.552,3.552,0,0,1,35.48,62.7a3.476,3.476,0,0,1-.926-2.491c0-1.588,1.085-3.081,3.613-3.081h2.155V56.86c0-.966-.474-1.324-1.588-1.324a2.009,2.009,0,0,0-1.7.712L35.02,54.234a4.709,4.709,0,0,1,3.873-1.424c3.042,0,4.683,1.265,4.683,3.854v6.882Zm-.079-4.267H38.691c-.63,0-1.027.357-1.027.85s.357.889,1.059.889a1.556,1.556,0,0,0,1.284-.394,1.344,1.344,0,0,0,.318-1.059Z" transform="translate(-25.405 -38.831)"/>
      <path id="Path_33" data-name="Path 33" class="cls-5" d="M77.842,54.294v-.868a3.139,3.139,0,0,1-2.449.987,3.672,3.672,0,0,1-2.589-.966c-1.059-1.059-.987-2.912-.987-4.466s-.058-3.417.987-4.466a3.621,3.621,0,0,1,2.568-.969,3.138,3.138,0,0,1,2.382.889V40.23h3.24V54.294ZM76.4,46.472c-1.2,0-1.342.969-1.342,2.509s.138,2.509,1.342,2.509,1.345-.969,1.345-2.509S77.606,46.472,76.4,46.472Z" transform="translate(-52.806 -29.581)"/>
    </g>
  </g>
</svg>
